<?xml version="1.0" standalone="no"?><!DOCTYPE svg PUBLIC "-//W3C//DTD SVG 1.1//EN" "http://www.w3.org/Graphics/SVG/1.1/DTD/svg11.dtd"><svg t="1642402370306" class="icon" viewBox="0 0 1024 1024" version="1.1" xmlns="http://www.w3.org/2000/svg" p-id="1125" xmlns:xlink="http://www.w3.org/1999/xlink" width="200" height="200"><defs><style type="text/css"></style></defs><path d="M950.90854064 652.73735716h-88.7273079v-142.06090387c0-40.87288835-33.22855357-74.10144193-74.10144195-74.10144193H238.7039843c-40.87288835 0-74.10144193 33.22855357-74.10144193 74.10144193v142.06090387H73.09145936c-25.98190093 0-47.14742907 21.16552814-47.14742908 47.14742907v217.84144823c0 26.02608782 21.16552814 47.14742907 47.14742908 47.14742906h217.84144823c26.02608782 0 47.14742907-21.16552814 47.14742907-47.14742906v-217.84144823c0-26.02608782-21.16552814-47.14742907-47.14742907-47.14742907H205.03356167v-142.06090387c0-18.55850066 15.11192197-33.67042263 33.67042263-33.67042263h549.37580649c18.55850066 0 33.67042263 15.11192197 33.67042264 33.67042263v142.06090387h-88.72730794c-26.02608782 0-47.14742907 21.16552814-47.14742904 47.14742907v217.84144823c0 26.02608782 21.16552814 47.14742907 47.14742904 47.14742906h217.84144826c26.02608782 0 47.14742907-21.16552814 47.14742906-47.14742906v-217.84144823a47.14742907 47.14742907 0 0 0-47.10324217-47.14742907m-653.25922329 47.14742907v217.84144823a6.71640976 6.71640976 0 0 1-6.71640976 6.71640976h-217.84144823a6.71640976 6.71640976 0 0 1-6.71640978-6.71640976v-217.84144823c0-3.71170014 3.00470964-6.71640976 6.71640978-6.71640978h217.84144823c3.71170014 0 6.71640976 3.04889653 6.71640976 6.71640978m659.97563307 217.84144823a6.71640976 6.71640976 0 0 1-6.71640978 6.71640976h-217.84144823a6.71640976 6.71640976 0 0 1-6.71640976-6.71640976v-217.84144823c0-3.71170014 3.00470964-6.71640976 6.71640976-6.71640978h217.84144823c3.71170014 0 6.71640976 3.00470964 6.71640978 6.71640978v217.84144823m-335.99723581-822.760196v227.78350217h-228.35793194V94.96603846h228.35793194z m0-42.11012173h-228.35793194a42.11012174 42.11012174 0 0 0-42.11012173 42.11012173v227.78350217c0 23.24231273 18.86780899 42.11012174 42.11012173 42.11012174h228.35793194a42.11012174 42.11012174 0 0 0 42.11012176-42.11012174V94.96603846a42.11012174 42.11012174 0 0 0-42.11012176-42.11012173" p-id="1126"></path></svg>