<?xml version="1.0" standalone="no"?><!DOCTYPE svg PUBLIC "-//W3C//DTD SVG 1.1//EN" "http://www.w3.org/Graphics/SVG/1.1/DTD/svg11.dtd"><svg t="1640947031409" class="icon" viewBox="0 0 1024 1024" version="1.1" xmlns="http://www.w3.org/2000/svg" p-id="883" xmlns:xlink="http://www.w3.org/1999/xlink" width="200" height="200"><defs><style type="text/css"></style></defs><path d="M385.78251852 427.04592592h582.54222223a9.70903703 9.70903703 0 0 0 9.70903703-9.70903703v-67.96325926a9.70903703 9.70903703 0 0 0-9.70903703-9.70903704H385.78251852a9.70903703 9.70903703 0 0 0-9.70903704 9.70903704v67.96325926a9.70903703 9.70903703 0 0 0 9.70903704 9.70903703z m-9.70903704 247.58044445a9.70903703 9.70903703 0 0 0 9.70903704 9.70903704h582.54222223a9.70903703 9.70903703 0 0 0 9.70903703-9.70903704v-67.96325926a9.70903703 9.70903703 0 0 0-9.70903703-9.70903703H385.78251852a9.70903703 9.70903703 0 0 0-9.70903704 9.70903703v67.96325926z m611.66933334-589.824H36.25718518a9.70903703 9.70903703 0 0 0-9.70903703 9.70903704v67.96325926a9.70903703 9.70903703 0 0 0 9.70903703 9.70903703h951.48562964a9.70903703 9.70903703 0 0 0 9.70903703-9.70903703v-67.96325926a9.70903703 9.70903703 0 0 0-9.70903703-9.70903704z m0 767.01392593H36.25718518a9.70903703 9.70903703 0 0 0-9.70903703 9.70903703v67.96325926a9.70903703 9.70903703 0 0 0 9.70903703 9.70903704h951.48562964a9.70903703 9.70903703 0 0 0 9.70903703-9.70903704v-67.96325926a9.70903703 9.70903703 0 0 0-9.70903703-9.70903703zM63.44248889 669.89321482L253.1328 520.49540741a10.67994075 10.67994075 0 0 0 0-16.86945186L63.44248889 354.10678518a10.8013037 10.8013037 0 0 0-17.47626667 8.37404445v298.91697778a10.8013037 10.8013037 0 0 0 17.47626667 8.49540741z" p-id="884"></path></svg>