<?xml version="1.0" standalone="no"?><!DOCTYPE svg PUBLIC "-//W3C//DTD SVG 1.1//EN" "http://www.w3.org/Graphics/SVG/1.1/DTD/svg11.dtd"><svg t="1640859585878" class="icon" viewBox="0 0 1024 1024" version="1.1" xmlns="http://www.w3.org/2000/svg" p-id="972" xmlns:xlink="http://www.w3.org/1999/xlink" width="200" height="200"><defs><style type="text/css"></style></defs><path d="M447.88947289 540.80748043a26.81326939 26.81326939 0 0 1 26.8132694 26.81326938v418.50150859a26.81326939 26.81326939 0 0 1-26.8132694 26.81326938H29.36115105a26.81326939 26.81326939 0 0 1-26.8132694-26.81326938V567.62074981a26.81326939 26.81326939 0 0 1 26.8132694-26.81326938h418.52832184z m540.93089659 0a26.81326939 26.81326939 0 0 1 26.81326941 26.81326938v418.50150859a26.81326939 26.81326939 0 0 1-26.81326941 26.81326938h-418.55513509a26.81326939 26.81326939 0 0 1-26.8132694-26.81326938V567.62074981a26.81326939 26.81326939 0 0 1 26.8132694-26.81326938h418.55513509z m-594.55743534 80.43980817H82.98768981v311.24843101h311.27524433V621.2472886z m540.93089658 0h-311.30205758v311.24843101h311.30205758V621.2472886zM787.7208491-18.78545168a254.72605917 254.72605917 0 1 1 0 509.45211835 254.72605917 254.72605917 0 0 1 0-509.45211835z m-339.83137621 18.66203551a26.81326939 26.81326939 0 0 1 26.8132694 26.81326938v418.50150856a26.81326939 26.81326939 0 0 1-26.8132694 26.81326941H29.36115105a26.81326939 26.81326939 0 0 1-26.8132694-26.81326941V26.68985321a26.81326939 26.81326939 0 0 1 26.8132694-26.81326938h418.52832184zM787.7208491 61.65435648a174.28625102 174.28625102 0 1 0 0 348.57250204 174.28625102 174.28625102 0 0 0 0-348.57250204z m-393.45791496 18.66203549H82.98768981v311.24843105h311.27524433V80.31639197z" p-id="973"></path></svg>