<?xml version="1.0" standalone="no"?><!DOCTYPE svg PUBLIC "-//W3C//DTD SVG 1.1//EN" "http://www.w3.org/Graphics/SVG/1.1/DTD/svg11.dtd"><svg t="1641292068534" class="icon" viewBox="0 0 1024 1024" version="1.1" xmlns="http://www.w3.org/2000/svg" p-id="913" xmlns:xlink="http://www.w3.org/1999/xlink" width="200" height="200"><defs><style type="text/css"></style></defs><path d="M751.71396688 716.82840434l214.24021538 214.26230881a22.09345317 22.09345317 0 0 1 0 31.24014279l-15.62007139 15.64216485a22.09345317 22.09345317 0 0 1-31.24014278 0l-218.90193399-218.92402746a400.1566238 400.1566238 0 0 1-228.04862361 70.91998469C250.10420613 829.94688455 70.13093663 649.95152159 70.13093663 427.9344107 70.13093663 205.91729981 250.10420613 25.94403028 472.14341049 25.94403028c222.01711089 0 401.99038041 179.97326951 401.9903804 402.01247386 0 113.38360166-46.92649453 215.7867571-122.44191746 288.8719002z m-279.57055639 46.83812071c185.408259 0 335.7100209-150.3017619 335.71002088-335.71002091C807.85343137 242.5261517 657.55166947 92.22438979 472.14341049 92.22438979 286.71305804 92.22438979 136.41129614 242.5261517 136.41129614 427.95650414c0 185.408259 150.3017619 335.7100209 335.73211435 335.71002091z" p-id="914"></path></svg>