<?xml version="1.0" standalone="no"?><!DOCTYPE svg PUBLIC "-//W3C//DTD SVG 1.1//EN" "http://www.w3.org/Graphics/SVG/1.1/DTD/svg11.dtd"><svg t="1641981195011" class="icon" viewBox="0 0 1024 1024" version="1.1" xmlns="http://www.w3.org/2000/svg" p-id="1155" xmlns:xlink="http://www.w3.org/1999/xlink" width="200" height="200"><defs><style type="text/css"></style></defs><path d="M511.99744 53.248C258.37696 53.248 53.248 258.37696 53.248 511.99744 53.248 765.62304 258.37696 970.752 511.99744 970.752c253.6256 0 458.75584-205.13024 458.75584-458.75456C970.752 258.37696 765.62304 53.248 511.99744 53.248z m0 826.624C308.6208 879.872 144.128 715.38048 144.128 511.99744 144.128 308.6208 308.6208 144.128 511.99744 144.128 715.3792 144.128 879.872 308.6208 879.872 511.99744c0 203.38304-164.4928 367.87456-367.87456 367.87456z" p-id="1156"></path><path d="M511.99872 209.40672c-167.28704 0-302.59072 135.30368-302.59072 302.59072 0 167.29216 135.30368 302.59456 302.59072 302.59456 167.29216 0 302.59456-135.3024 302.59456-302.59456-0.00128-167.28704-135.30368-302.59072-302.59456-302.59072z" p-id="1157"></path></svg>