<?xml version="1.0" standalone="no"?><!DOCTYPE svg PUBLIC "-//W3C//DTD SVG 1.1//EN" "http://www.w3.org/Graphics/SVG/1.1/DTD/svg11.dtd"><svg t="1641355860292" class="icon" viewBox="0 0 1024 1024" version="1.1" xmlns="http://www.w3.org/2000/svg" p-id="943" xmlns:xlink="http://www.w3.org/1999/xlink" width="200" height="200"><defs><style type="text/css"></style></defs><path d="M172.31315753 553.42522469h231.98125828l62.13783702 194.69855606H553.42522469L333.87153383 110.1753205h-86.99297186L31.46739358 748.12378075h82.85044939L172.31315753 553.42522469zM222.02342717 391.86684839c20.71261235-70.42288197 41.42522469-140.84576395 62.13783702-215.41116839h4.14252248c20.71261235 74.56540445 41.42522469 144.98828642 62.13783703 215.41116839l28.99765728 95.27801679h-186.41351111l28.9976573-95.27801679z m405.96720197 231.98125828c0 86.99297185 57.99531457 132.56071902 136.70324147 132.56071902 57.99531457 0 111.84810667-28.99765728 157.41585384-66.28035952h4.14252246l8.28504494 57.99531458h66.28035951v-289.97657285c0-115.99062914-49.71026963-194.69855605-161.5583763-194.69855605-74.56540445 0-140.84576395 33.14017975-186.41351111 62.13783704l33.14017975 53.85279209c37.28270222-24.85513482 86.99297185-49.71026963 140.84576395-49.71026962 78.70792691 0 95.2780168 57.99531457 95.2780168 120.13315161-207.12612347 20.71261235-294.11909531 74.56540445-294.11909531 173.9859437z m285.83405036-124.27567408v132.56071902c-45.56774717 41.42522469-82.85044939 62.13783703-128.41819653 62.13783703s-82.85044939-20.71261235-82.85044939-74.56540445c0-62.13783703 53.8527921-99.42053925 211.26864592-120.1331516z m-882.35728592 331.40179754h961.06521284v82.85044937H31.46739358z" p-id="944"></path></svg>