<?xml version="1.0" standalone="no"?><!DOCTYPE svg PUBLIC "-//W3C//DTD SVG 1.1//EN" "http://www.w3.org/Graphics/SVG/1.1/DTD/svg11.dtd"><svg t="1642041691910" class="icon" viewBox="0 0 1024 1024" version="1.1" xmlns="http://www.w3.org/2000/svg" p-id="1065" xmlns:xlink="http://www.w3.org/1999/xlink" width="200" height="200"><defs><style type="text/css"></style></defs><path d="M502.78672229 438.08022561L901.8863875 39.01106793a30.50754206 30.50754206 0 0 1 43.13766446 0l21.56883225 21.56883222a30.50754206 30.50754206 0 0 1 0 43.1376645L567.52372655 502.78672229 966.56237666 901.8863875a30.50754206 30.50754206 0 0 1 0 43.13766446l-21.56883225 21.56883225a30.50754206 30.50754206 0 0 1-43.13766446 0L502.78672229 567.52372655 103.71756465 966.56237666a30.50754206 30.50754206 0 0 1-43.1376645 0l-21.56883222-21.56883225a30.50754206 30.50754206 0 0 1 0-43.13766446l399.06915768-399.0996652-399.06915768-399.06915765a30.50754206 30.50754206 0 0 1 0-43.13766447l21.56883222-21.56883222a30.50754206 30.50754206 0 0 1 43.1376645 0l399.06915764 399.06915766z" p-id="1066"></path></svg>