<?xml version="1.0" standalone="no"?><!DOCTYPE svg PUBLIC "-//W3C//DTD SVG 1.1//EN" "http://www.w3.org/Graphics/SVG/1.1/DTD/svg11.dtd"><svg t="1641807281983" class="icon" viewBox="0 0 1024 1024" version="1.1" xmlns="http://www.w3.org/2000/svg" p-id="5582" xmlns:xlink="http://www.w3.org/1999/xlink" width="200" height="200"><defs><style type="text/css"></style></defs><path d="M512 64.050782c60.495816 0 119.153774 11.836583 174.345794 35.181267 53.335742 22.558785 101.245915 54.864562 142.401244 96.01989s73.461105 89.066525 96.01989 142.401244c23.344684 55.19202 35.181267 113.851001 35.181267 174.345794 0 60.494793-11.836583 119.153774-35.181267 174.345793-22.558785 53.334719-54.864562 101.245915-96.01989 142.401244s-89.066525 73.461105-142.401244 96.019891c-55.19202 23.344684-113.851001 35.181267-174.345794 35.181267s-119.153774-11.836583-174.345794-35.181267c-53.335742-22.558785-101.245915-54.864562-142.401244-96.019891S121.791857 739.679489 99.233072 686.34477c-23.344684-55.19202-35.181267-113.851001-35.181267-174.345793 0-60.495816 11.836583-119.153774 35.181267-174.345794 22.558785-53.335742 54.864562-101.245915 96.01989-142.401244s89.066525-73.461105 142.401244-96.01989c55.19202-23.344684 113.849978-35.181267 174.345794-35.181267m0-51.16531c-275.653107 0-499.114528 223.461421-499.114528 499.114528S236.346893 1011.114528 512 1011.114528s499.114528-223.461421 499.114528-499.114528S787.653107 12.885472 512 12.885472z" p-id="5583"></path><path d="M464.355887 563.062979l38.774095 9.793041c-8.128121 31.847336-22.75219 56.131415-43.87016 72.850191-21.120017 16.72287-46.935985 25.083282-77.447906 25.083282-31.578206 0-57.261145-6.426363-77.046771-19.287276-19.786649-12.856819-34.845623-31.478945-45.169759-55.862285-10.327206-24.38334-15.489786-50.565652-15.489786-78.546937 0-30.509874 5.826705-57.127092 17.488303-79.845513 11.657504-22.715351 28.246321-39.972387 49.766451-51.764967 21.517059-11.791557 45.200458-17.687848 71.051219-17.687848 29.312606 0 53.963029 7.463995 73.950246 22.384823 19.986193 14.923898 33.909297 35.909861 41.771359 62.956868l-38.174438 8.993838c-6.795776-21.316491-16.656355-36.840046-29.579689-46.568619-12.925381-9.724479-29.1806-14.5903-48.76668-14.5903-22.518876 0-41.339524 5.395894-56.461943 16.188705-15.123442 10.79281-25.7515 25.282826-31.878035 43.470047-6.130627 18.187221-9.193383 36.944424-9.193383 56.261375 0 24.917506 3.628644 46.667879 10.893095 65.256236 7.260357 18.587334 18.552541 32.477692 33.876552 41.672098 15.321964 9.193383 31.91078 13.791098 49.76645 13.791098 21.717627 0 40.104393-6.261611 55.162344-18.786879 15.054881-12.521175 25.248034-31.108508 30.578436-55.760978zM550.497802 665.793712V372.792495h39.772843l153.896042 230.04435V372.792495h37.174668v293.001217h-39.772842l-153.896043-230.243895v230.243895h-37.174668z" p-id="5584"></path></svg>