<?xml version="1.0" standalone="no"?><!DOCTYPE svg PUBLIC "-//W3C//DTD SVG 1.1//EN" "http://www.w3.org/Graphics/SVG/1.1/DTD/svg11.dtd"><svg t="1638771998018" class="icon" viewBox="0 0 1024 1024" version="1.1" xmlns="http://www.w3.org/2000/svg" p-id="19643" xmlns:xlink="http://www.w3.org/1999/xlink" width="200" height="200"><defs><style type="text/css"></style></defs><path d="M886.624 541.312l-42.976-42.976c15.424-13.44 30.08-27.68 43.904-42.72a32 32 0 0 0-47.136-43.264c-87.36 95.232-203.424 147.648-326.72 147.648-124.352 0-241.568-53.12-330.144-149.664a32 32 0 0 0-47.136 43.296c14.304 15.616 29.376 30.08 44.96 43.648l-44 44.032a32 32 0 1 0 45.248 45.216l49.856-49.856a512.064 512.064 0 0 0 83.744 46.176l-24.416 58.88a32 32 0 0 0 59.136 24.512l25.536-61.696a493.44 493.44 0 0 0 103.488 18.144V688a32 32 0 0 0 64 0v-65.024a490.816 490.816 0 0 0 107.2-18.592l25.6 61.856a32 32 0 0 0 59.136-24.48l-24.512-59.2a507.936 507.936 0 0 0 81.12-44.832l48.832 48.832a32 32 0 0 0 45.28-45.248z" p-id="19644"></path></svg>