<?xml version="1.0" standalone="no"?><!DOCTYPE svg PUBLIC "-//W3C//DTD SVG 1.1//EN" "http://www.w3.org/Graphics/SVG/1.1/DTD/svg11.dtd"><svg t="1642045444736" class="icon" viewBox="0 0 1024 1024" version="1.1" xmlns="http://www.w3.org/2000/svg" p-id="1360" xmlns:xlink="http://www.w3.org/1999/xlink" width="200" height="200"><defs><style type="text/css"></style></defs><path d="M837.56912589 316.25789652a389.00974023 389.00974023 0 0 0-689.48070331 61.50817362 21.11544964 21.11544964 0 0 1-26.46501109 12.01883851l-29.83499918-10.32206131a18.19322224 18.19322224 0 0 1-10.98191912-23.84914624 459.70879037 459.70879037 0 0 1 820.01471623-71.5238724l18.71168194-65.32592232a23.56635005 23.56635005 0 0 1 11.24114898-14.11624369l36.45714351-20.19636199a21.30398045 21.30398045 0 0 1 30.8012195 24.50900406l-56.15861216 195.83636887a16.40217963 16.40217963 0 0 1-20.26706102 11.24114898l-195.8363689-56.15861216a21.30398045 21.30398045 0 0 1-4.47760651-39.12014107l36.45714353-20.19636199a23.56635005 23.56635005 0 0 1 17.91042604-2.05027246l61.90880156 17.74546159z m-659.1508108 412.92958552a389.00974023 389.00974023 0 0 0 689.48070332-61.50817363 21.11544964 21.11544964 0 0 1 26.46501109-12.01883853l29.83499917 10.32206133a18.19322224 18.19322224 0 0 1 10.95835278 23.82557989c-68.29528244 173.8489643-236.84181797 293.21252729-427.77638606 293.21252728-163.43263757 0-310.43952916-87.33689327-392.23833017-221.57082313l-18.71168193 65.23165692a23.56635005 23.56635005 0 0 1-11.21758264 14.11624368l-36.45714353 20.196362a21.30398045 21.30398045 0 0 1-30.82478586-24.50900407l56.15861217-195.83636888a16.40217963 16.40217963 0 0 1 20.26706103-11.24114897l195.85993525 56.15861216a21.30398045 21.30398045 0 0 1 4.47760652 39.12014108l-36.48070988 20.19636199a23.56635005 23.56635005 0 0 1-17.91042604 2.05027247l-61.88523522-17.74546159z" p-id="1361"></path></svg>