<?xml version="1.0" standalone="no"?><!DOCTYPE svg PUBLIC "-//W3C//DTD SVG 1.1//EN" "http://www.w3.org/Graphics/SVG/1.1/DTD/svg11.dtd"><svg t="1640859397208" class="icon" viewBox="0 0 1024 1024" version="1.1" xmlns="http://www.w3.org/2000/svg" p-id="912" xmlns:xlink="http://www.w3.org/1999/xlink" width="200" height="200"><defs><style type="text/css"></style></defs><path d="M390.10687737 2.54788165a26.81326939 26.81326939 0 0 0-26.81326938 26.8132694v113.90276834a401.77002848 401.77002848 0 0 0-77.91936085 45.07310584l-98.72645789-56.97819742a26.81326939 26.81326939 0 0 0-36.62692596 9.81365657l-134.06634694 232.20291288a26.81326939 26.81326939 0 0 0 9.81365661 36.62692599l98.69964459 56.97819744a406.59641697 406.59641697 0 0 0 0 90.03895862l-98.67283133 56.97819744a26.81326939 26.81326939 0 0 0-11.26157315 33.8115327l1.42110328 2.81539329 134.06634694 232.20291288a26.81326939 26.81326939 0 0 0 36.62692596 9.81365657l98.72645789-56.97819742a401.77002848 401.77002848 0 0 0 77.91936085 45.04629256V994.63884895a26.81326939 26.81326939 0 0 0 26.81326938 26.8132694h268.13269386a26.81326939 26.81326939 0 0 0 26.8132694-26.8132694v-113.90276834a401.77002848 401.77002848 0 0 0 77.94617409-45.07310584l98.7264579 56.97819742a26.81326939 26.81326939 0 0 0 36.62692596-9.81365657l134.06634692-232.20291288a26.81326939 26.81326939 0 0 0-7.18595618-34.91087677l-2.62770039-1.71604922-98.69964462-56.97819744a406.59641697 406.59641697 0 0 0 0-90.03895862l98.67283135-56.97819744a26.81326939 26.81326939 0 0 0 11.26157314-33.8115327l-1.4211033-2.81539329-134.06634692-232.20291288a26.81326939 26.81326939 0 0 0-36.62692596-9.81365657l-98.7264579 56.97819742a401.77002848 401.77002848 0 0 0-77.91936083-45.04629256V29.36115105a26.81326939 26.81326939 0 0 0-26.81326938-26.8132694h-268.13269386z m53.62653877 80.43980816h160.87961632v112.91067741l48.26388489 21.07522973c22.04050743 9.65277699 42.95485757 21.74556148 62.31403805 36.06384731l42.36496565 31.31789864 97.94887306-56.52237184 80.43980815 139.32174771-97.8148067 56.44193207 5.81847944 52.2858753a326.15660881 326.15660881 0 0 1 0 72.23494772l-5.81847944 52.2858753 97.8148067 56.44193207-80.43980815 139.32174771-97.92205978-56.52237184-42.39177893 31.31789864c-19.35918049 14.31828585-40.2735306 26.41107036-62.31403805 36.06384731l-48.26388489 21.07522973V941.01231019h-160.87961632v-112.91067741l-48.23707162-21.07522973c-22.04050743-9.65277699-42.95485757-21.74556148-62.31403806-36.06384731l-42.36496563-31.31789864-97.94887308 56.52237184-80.43980813-139.32174771 97.81480672-56.44193207-5.81847947-52.2858753a326.15660881 326.15660881 0 0 1 0-72.23494772l5.81847947-52.2858753-97.81480672-56.44193207 80.43980813-139.32174771 97.92205981 56.52237184 42.3917789-31.31789864a321.33022032 321.33022032 0 0 1 62.31403806-36.06384731l48.2638849-21.07522973V82.98768981z m79.23321104 241.31942448a187.69288571 187.69288571 0 1 0 0 375.38577142 187.69288571 187.69288571 0 0 0 0-375.38577142z m0 80.43980816a107.25307755 107.25307755 0 1 1 0 214.5061551 107.25307755 107.25307755 0 0 1 0-214.5061551z" p-id="913"></path></svg>