<?xml version="1.0" standalone="no"?><!DOCTYPE svg PUBLIC "-//W3C//DTD SVG 1.1//EN" "http://www.w3.org/Graphics/SVG/1.1/DTD/svg11.dtd"><svg t="1642068930142" class="icon" viewBox="0 0 1024 1024" version="1.1" xmlns="http://www.w3.org/2000/svg" p-id="1241" xmlns:xlink="http://www.w3.org/1999/xlink" width="200" height="200"><defs><style type="text/css"></style></defs><path d="M957.54666667 214.29333333L830.18666667 74.24c-21.76-23.89333333-51.09333333-37.12-82.45333334-37.12s-60.69333333 13.22666667-82.45333333 37.12l-50.98666667 56c-8.21333333 9.06666667-15.14666667 19.41333333-20.37333333 30.72H431.36c-5.33333333-11.30666667-12.16-21.76-20.37333333-30.72l-50.98666667-56c-21.76-23.89333333-51.09333333-37.12-82.45333333-37.12s-60.69333333 13.22666667-82.45333334 37.12L67.62666667 214.29333333c-43.30666667 47.57333333-43.30666667 125.01333333 0 172.58666667l50.98666666 56c20.37333333 22.29333333 47.36 35.2 75.73333334 36.90666667v386.13333333c0 68.05333333 51.62666667 123.52 115.2 123.52H715.73333333c63.46666667 0 115.2-55.36 115.2-123.52v-386.13333333c28.26666667-1.70666667 55.36-14.50666667 75.73333334-36.90666667l50.98666666-56c43.2-47.57333333 43.2-125.01333333-0.10666666-172.58666667z m-44.05333334 132.58666667l-50.98666666 56c-14.08 15.46666667-33.70666667 21.22666667-52.69333334 15.46666667-9.06666667-2.77333333-18.77333333-1.06666667-26.45333333 4.58666666-7.57333333 5.54666667-12.05333333 14.50666667-12.05333333 23.89333334v419.09333333c0 35.30666667-24.96 64.10666667-55.68 64.10666667H309.54666667c-30.72 0-55.68-28.8-55.68-64.10666667v-419.2c0-9.38666667-4.48-18.24-12.05333334-23.89333333-5.22666667-3.84-11.41333333-5.86666667-17.70666666-5.86666667-2.88 0-5.86666667 0.42666667-8.74666667 1.28-18.98666667 5.76-38.61333333 0-52.69333333-15.46666667l-50.98666667-56c-22.93333333-25.17333333-22.93333333-67.62666667 0-92.69333333L239.14666667 114.13333333c10.34666667-11.41333333 24-17.6 38.4-17.6s27.94666667 6.29333333 38.29333333 17.6l50.98666667 56c6.93333333 7.57333333 12.05333333 17.28 14.82666666 27.94666667 3.41333333 13.12 15.25333333 22.29333333 28.8 22.29333333h204.16c13.54666667 0 25.49333333-9.17333333 28.8-22.29333333 2.77333333-10.66666667 7.89333333-20.37333333 14.82666667-27.94666667l50.98666667-56c10.34666667-11.41333333 24-17.6 38.4-17.6s27.94666667 6.29333333 38.29333333 17.6l127.46666667 139.94666667c22.93333333 25.17333333 22.93333333 67.73333333 0.10666666 92.8z" p-id="1242"></path></svg>