<?xml version="1.0" standalone="no"?><!DOCTYPE svg PUBLIC "-//W3C//DTD SVG 1.1//EN" "http://www.w3.org/Graphics/SVG/1.1/DTD/svg11.dtd"><svg t="1640859590159" class="icon" viewBox="0 0 1024 1024" version="1.1" xmlns="http://www.w3.org/2000/svg" p-id="1118" xmlns:xlink="http://www.w3.org/1999/xlink" width="200" height="200"><defs><style type="text/css"></style></defs><path d="M394.99307201 514.34089984a221.21732789 221.21732789 0 0 1-108.40521021-190.36897567V241.96102603a221.31159329 221.31159329 0 0 1 442.62318659-1e-8v81.9873318a221.19376153 221.19376153 0 0 1-106.11927428 189.00212736A507.31281745 507.31281745 0 0 1 972.62787802 796.00591559c3.770616 8.17752347 10.65199022 16.49644503 10.65199021 24.93319835v7.04633868H983.32700093V960.26337542a23.56635005 23.56635005 0 0 1-23.56635004 23.56635005H64.23934911a23.56635005 23.56635005 0 0 1-23.56635004-23.56635005V842.40805886l0.471327-0.04713272c0-7.77689552-0.0471327-15.69518913 0.49489334-23.70774813 0.54202605-7.96542631 6.50431262-15.62449008 10.01569877-23.2599875a507.31281745 507.31281745 0 0 1 343.33815383-281.05229067zM111.37204922 835.07892399v78.05175135h801.25590156v-78.0753177a436.21313936 436.21313936 0 0 0-801.25590156 0zM507.89945509 91.37204923a150.61254315 150.61254315 0 0 0-150.61254314 150.61254314v81.9873318a150.61254315 150.61254315 0 0 0 301.22508629 0V241.96102603A150.61254315 150.61254315 0 0 0 507.92302144 91.37204923z" p-id="1119"></path></svg>