<?xml version="1.0" standalone="no"?><!DOCTYPE svg PUBLIC "-//W3C//DTD SVG 1.1//EN" "http://www.w3.org/Graphics/SVG/1.1/DTD/svg11.dtd"><svg t="1641807176845" class="icon" viewBox="0 0 1024 1024" version="1.1" xmlns="http://www.w3.org/2000/svg" p-id="4746" xmlns:xlink="http://www.w3.org/1999/xlink" width="200" height="200"><defs><style type="text/css"></style></defs><path d="M512 0c282.760533 0 512 229.239467 512 512 0 282.760533-229.239467 512-512 512-282.760533 0-512-229.239467-512-512C0 229.239467 229.239467 0 512 0z m0 34.133333C248.081067 34.133333 34.133333 248.081067 34.133333 512s213.947733 477.866667 477.866667 477.866667 477.866667-213.947733 477.866667-477.866667S775.918933 34.133333 512 34.133333z m31.1296 238.933334v98.304h196.061867v256.682666h-39.3216v-34.4064h-156.740267v186.231467h-40.413867v-186.231467h-156.194133V628.053333H307.2v-256.682666h195.515733V273.066667h40.413867z m-40.413867 136.533333h-156.194133v145.8176h156.194133V409.6z m197.154134 0h-156.740267v145.8176h156.740267V409.6z" p-id="4747"></path></svg>